#!OML:ASF X:\für Bonn\!DataBase\2005_08_12_Daniel\c3d\Daniel.ASF
:FULLY-SPECIFIED
:DEGREES
109
root -12.4244 17.7104 20.4352 -172.395 67.3547 542.032
lowerback 12.0104 1.36914 -2.94539
upperback 0.925943 1.37311 -2.54336
thorax -5.77197 0.760907 -1.24626
lowerneck -3.99188 4.53135 -1.97425
upperneck -0.642617 6.33569 -7.3039
head 0.65909 3.16247 -1.82408
rclavicle -4.21423e-014 -7.95139e-015
rhumerus -54.6485 25.2992 -108.474
rradius 100.129
rwrist -1.55378
rhand -26.8523 32.2546
rfingers 7.12502
rthumb -0.277425 2.27507
lclavicle -4.21423e-014 -7.95139e-015
lhumerus -73.3604 3.28351 93.4358
lradius 97.4544
lwrist 17.9435
lhand -9.26443 -9.19093
lfingers 7.12502
lthumb 16.6919 20.1114
rfemur 9.65511 1.55424 17.0232
rtibia 37.0897
rfoot 8.33925 -10.427
rtoes -15.0985
lfemur -36.1637 7.1061 -33.9246
ltibia 57.6055
lfoot -18.0338 -4.58907
ltoes -10.467
110
root -12.167 17.6895 20.3071 -172.211 66.6936 542.612
lowerback 12.0878 1.31302 -2.87544
upperback 1.03708 1.31364 -2.53119
thorax -5.69614 0.731242 -1.26246
lowerneck -4.13896 4.4831 -2.21069
upperneck -0.754546 6.27922 -7.11828
head 0.631523 3.1378 -1.72375
rclavicle -1.8487e-014 6.67916e-014
rhumerus -55.1387 25.4316 -108.817
rradius 99.3817
rwrist -2.15195
rhand -26.4927 31.7225
rfingers 7.12502
rthumb 0.0698504 1.74272
lclavicle -1.8487e-014 6.67916e-014
lhumerus -73.3751 3.9928 93.0868
lradius 98.1215
lwrist 17.8951
lhand -9.98073 -9.53772
lfingers 7.12502
lthumb 16.0022 19.8214
rfemur 10.0535 0.991316 17.1776
rtibia 38.2148
rfoot 8.55018 -8.86848
rtoes -15.4482
lfemur -35.6012 7.55214 -34.1145
ltibia 55.4996
lfoot -18.3678 -4.2138
ltoes -10.242
111
root -11.9104 17.6557 20.1725 -171.493 65.9962 543.812
lowerback 12.185 1.21937 -2.48093
upperback 1.16399 1.2486 -2.46123
thorax -5.60926 0.690796 -1.39965
lowerneck -4.26647 4.4441 -2.47994
upperneck -0.902772 6.2343 -6.91702
head 0.588149 3.12105 -1.61416
rclavicle -4.96962e-015 -4.77083e-015
rhumerus -55.564 25.4611 -109.108
rradius 98.4611
rwrist -2.63946
rhand -26.1423 31.0946
rfingers 7.12502
rthumb 0.408259 1.1152
lclavicle -4.96962e-015 -4.77083e-015
lhumerus -73.1691 4.6396 92.7673
lradius 98.834
lwrist 18.004
lhand -10.6259 -9.78966
lfingers 7.12502
lthumb 15.3809 19.6182
rfemur 10.3993 0.353531 17.5378
rtibia 39.5004
rfoot 8.34499 -7.0352
rtoes -15.9931
lfemur -35.0302 8.15049 -34.0546
ltibia 53.5838
lfoot -18.5347 -3.73632
ltoes -10.261
112
root -11.6596 17.6106 20.039 -170.536 65.2902 545.327
lowerback 12.3383 1.11418 -1.89031
upperback 1.3039 1.19442 -2.36762
thorax -5.53713 0.651973 -1.62583
lowerneck -4.41107 4.40018 -2.72034
upperneck -1.05239 6.18334 -6.72105
head 0.548643 3.1011 -1.51146
rclavicle 3.97569e-016 -1.03368e-014
rhumerus -55.8306 25.2708 -109.328
rradius 97.4461
rwrist -2.97136
rhand -25.735 30.4032
rfingers 7.12502
rthumb 0.801682 0.42498
lclavicle 3.97569e-016 -1.03368e-014
lhumerus -72.5941 5.17366 92.4787
lradius 99.478
lwrist 18.1487
lhand -11.2799 -9.8465
lfingers 7.12502
lthumb 14.7509 19.6086
rfemur 10.6309 -0.24262 18.0494
rtibia 40.9845
rfoot 7.95309 -5.34844
rtoes -16.8835
lfemur -34.453 8.85311 -33.8621
ltibia 51.8612
lfoot -18.5863 -3.06286
ltoes -9.6632
113
root -11.409 17.5537 19.9047 -170.191 64.6056 546.187
lowerback 12.4498 1.01365 -1.57184
upperback 1.46688 1.11321 -2.32852
thorax -5.42293 0.607868 -1.75022
lowerneck -4.42496 4.35033 -2.94798
upperneck -1.30887 6.11321 -6.57585
head 0.456389 3.07814 -1.43219
rclavicle 6.95746e-015 -7.95139e-015
rhumerus -55.9223 24.9214 -109.521
rradius 96.255
rwrist -3.17704
rhand -25.4459 29.8268
rfingers 7.12502
rthumb 1.08094 -0.150203
lclavicle 6.95746e-015 -7.95139e-015
lhumerus -71.9525 5.65687 92.293
lradius 100.142
lwrist 18.269
lhand -11.9435 -9.92813
lfingers 7.12502
lthumb 14.1115 19.5727
rfemur 10.7184 -0.811274 18.2438
rtibia 42.7496
rfoot 7.31394 -3.75779
rtoes -17.5668
lfemur -33.8079 9.54807 -33.9557
ltibia 50.3051
lfoot -18.4951 -2.34923
ltoes -8.77696
114
root -11.1595 17.4843 19.7686 -170.414 63.9237 546.461
lowerback 12.5896 0.90358 -1.43873
upperback 1.6541 0.994006 -2.38042
thorax -5.30197 0.550812 -1.85989
lowerneck -4.4979 4.29388 -3.1522
upperneck -1.53879 6.0404 -6.47516
head 0.385219 3.05217 -1.36946
rclavicle 2.42517e-014 -2.54444e-014
rhumerus -55.8802 24.3243 -109.627
rradius 94.9229
rwrist -3.11795
rhand -25.1769 29.4386
rfingers 7.12502
rthumb 1.34071 -0.53694
lclavicle 2.42517e-014 -2.54444e-014
lhumerus -71.2253 6.09063 92.1017
lradius 100.737
lwrist 18.4528
lhand -12.5703 -10.172
lfingers 7.12502
lthumb 13.5074 19.3699
rfemur 10.7004 -1.37589 18.1162
rtibia 44.8206
rfoot 6.54905 -2.21623
rtoes -17.9929
lfemur -33.0807 10.1663 -34.3042
ltibia 48.9739
lfoot -18.266 -1.62218
ltoes -6.23254
115
root -10.9114 17.4041 19.6329 -170.883 63.2827 546.495
lowerback 12.8609 0.805716 -1.47594
upperback 1.8197 0.864544 -2.44397
thorax -5.27966 0.492836 -1.88745
lowerneck -4.68188 4.25958 -3.17508
upperneck -1.6877 5.99912 -6.42365
head 0.366244 3.03536 -1.348
rclavicle 3.97569e-015 4.77083e-015
rhumerus -55.8621 23.6619 -109.663
rradius 93.4371
rwrist -2.96816
rhand -25.1579 29.4715
rfingers 7.12502
rthumb 1.35906 -0.503882
lclavicle 3.97569e-015 4.77083e-015
lhumerus -70.659 6.53313 91.9501
lradius 101.54
lwrist 18.5912
lhand -13.1022 -10.4132
lfingers 7.12502
lthumb 12.9947 19.1621
rfemur 10.4932 -1.94882 17.7642
rtibia 47.2145
rfoot 5.79097 -0.769895
rtoes -17.8946
lfemur -32.2699 10.609 -34.7073
ltibia 47.9506
lfoot -18.1719 -0.746162
ltoes -1.69188
116
root -10.6663 17.3153 19.4981 -171.508 62.6501 546.298
lowerback 13.0856 0.707243 -1.63964
upperback 1.98529 0.718428 -2.52198
thorax -5.233 0.429504 -1.85436
lowerneck -4.78533 4.23698 -3.21395
upperneck -1.92371 5.96666 -6.40835
head 0.307883 3.02815 -1.33815
rclavicle -4.77083e-015 -6.36111e-015
rhumerus -55.7175 22.8916 -109.586
rradius 91.8024
rwrist -2.75259
rhand -25.2455 29.8388
rfingers 7.12502
rthumb 1.27444 -0.137111
lclavicle -4.77083e-015 -6.36111e-015
lhumerus -70.2001 6.98363 91.9214
lradius 102.477
lwrist 18.7756
lhand -13.5874 -10.7415
lfingers 7.12502
lthumb 12.527 18.863
rfemur 9.98078 -2.52524 17.2456
rtibia 49.9198
rfoot 5.09494 0.489564
rtoes -17.5807
lfemur -31.4853 10.935 -35.212
ltibia 47.3263
lfoot -18.2738 0.0602159
ltoes 3.56261
117
root -10.4242 17.2164 19.3648 -172.281 62.0111 546.016
lowerback 13.3985 0.601203 -1.83
upperback 2.18262 0.558695 -2.62621
thorax -5.2009 0.361363 -1.8323
lowerneck -5.00208 4.2076 -3.25808
upperneck -2.06925 5.93714 -6.37111
head 0.295425 3.01728 -1.31674
rclavicle -1.43125e-014 4.77083e-015
rhumerus -55.5112 21.9711 -109.434
rradius 90.009
rwrist -2.30731
rhand -25.6657 30.5471
rfingers 7.12502
rthumb 0.868669 0.569128
lclavicle -1.43125e-014 4.77083e-015
lhumerus -69.7179 7.43227 91.9126
lradius 103.455
lwrist 18.9257
lhand -13.9303 -11.0189
lfingers 7.12502
lthumb 12.1963 18.6055
rfemur 9.34298 -3.13927 16.6462
rtibia 52.8825
rfoot 4.46389 1.43472
rtoes -17.4466
lfemur -30.6101 11.0842 -35.7182
ltibia 47.1785
lfoot -18.615 1.03888
ltoes 7.70861
118
root -10.1858 17.1101 19.2312 -173.095 61.3881 545.64
lowerback 13.6746 0.479439 -2.10111
upperback 2.38527 0.368467 -2.73788
thorax -5.14265 0.279975 -1.76556
lowerneck -5.23244 4.20011 -3.1659
upperneck -2.258 5.93025 -6.45002
head 0.280793 3.01821 -1.35397
rclavicle 1.86858e-014 -1.59028e-014
rhumerus -55.1597 21.0548 -109.195
rradius 88.0445
rwrist -1.87685
rhand -26.1982 31.4716
rfingers 7.12502
rthumb 0.354301 1.49216
lclavicle 1.86858e-014 -1.59028e-014
lhumerus -69.1312 7.84579 91.8997
lradius 104.343
lwrist 18.9961
lhand -14.3127 -11.4431
lfingers 7.12502
lthumb 11.8276 18.2029
rfemur 8.46432 -3.84517 15.8957
rtibia 56.0744
rfoot 3.79989 2.08751
rtoes -17.9287
lfemur -29.8299 11.0261 -36.2268
ltibia 47.5111
lfoot -19.2931 2.28394
ltoes 10.1741
119
root -9.9516 16.994 19.1027 -174.037 60.7603 545.131
lowerback 14.0331 0.35716 -2.47934
upperback 2.55593 0.157075 -2.84916
thorax -5.16214 0.190271 -1.63504
lowerneck -5.36172 4.2163 -3.15963
upperneck -2.47352 5.95032 -6.44986
head 0.235934 3.03576 -1.35454
rclavicle 3.57812e-015 7.95139e-015
rhumerus -54.9268 20.0381 -108.903
rradius 86.2189
rwrist -1.31378
rhand -26.8338 32.2617
rfingers 7.12502
rthumb -0.259571 2.28209
lclavicle 3.57812e-015 7.95139e-015
lhumerus -68.5797 8.27945 91.9467
lradius 105.269
lwrist 19.1711
lhand -14.5682 -11.7713
lfingers 7.12502
lthumb 11.5812 17.8887
rfemur 7.45961 -4.52681 15.0428
rtibia 59.4115
rfoot 3.10107 2.28526
rtoes -18.5371
lfemur -29.0503 10.7766 -36.7113
ltibia 48.2582
lfoot -20.345 3.46393
ltoes 12.3061
120
root -9.71968 16.8671 18.974 -174.97 60.1114 544.589
lowerback 14.3195 0.22827 -2.87864
upperback 2.75363 -0.0617287 -2.96144
thorax -5.1107 0.0973988 -1.48988
lowerneck -5.49178 4.23958 -3.11876
upperneck -2.72224 5.9785 -6.52328
head 0.184826 3.05889 -1.38419
rclavicle 9.74045e-014 -1.11319e-014
rhumerus -54.671 19.0353 -108.49
rradius 84.4793
rwrist -0.797014
rhand -27.6199 32.8948
rfingers 7.12502
rthumb -1.01877 2.91751
lclavicle 9.74045e-014 -1.11319e-014
lhumerus -67.8669 8.6397 91.9984
lradius 106.203
lwrist 19.3439
lhand -14.6909 -11.8379
lfingers 7.12502
lthumb 11.4629 17.8287
rfemur 6.31573 -5.19621 14.129
rtibia 62.8563
rfoot 2.51245 2.09344
rtoes -18.5754
lfemur -28.2644 10.2595 -37.1322
ltibia 49.3376
lfoot -21.8088 4.34682
ltoes 13.8044
121
root -9.49057 16.7296 18.8472 -175.934 59.4748 544.027
lowerback 14.6501 0.0898401 -3.34687
upperback 2.9294 -0.307221 -3.05013
thorax -5.10291 -0.00758258 -1.27571
lowerneck -5.62753 4.31898 -3.03697
upperneck -2.85131 6.08499 -6.646
head 0.1763 3.1153 -1.43268
rclavicle 9.54166e-015 -9.54166e-015
rhumerus -54.476 18.0445 -108.009
rradius 82.7189
rwrist -0.196977
rhand -28.3953 33.3954
rfingers 7.12502
rthumb -1.76768 3.42301
lclavicle 9.54166e-015 -9.54166e-015
lhumerus -66.9749 8.96685 92.0144
lradius 106.95
lwrist 19.631
lhand -14.7706 -11.9959
lfingers 7.12502
lthumb 11.386 17.675
rfemur 5.11099 -5.88186 13.0975
rtibia 66.3532
rfoot 1.91133 1.74537
rtoes -18.1801
lfemur -27.3575 9.62906 -37.5259
ltibia 50.6043
lfoot -23.4632 5.15859
ltoes 14.3903
122
root -9.26464 16.5881 18.7259 -176.798 58.7965 543.524
lowerback 14.9472 -0.0604793 -3.81573
upperback 3.10819 -0.567854 -3.14291
thorax -5.06936 -0.120316 -1.06131
lowerneck -5.75052 4.40831 -2.94433
upperneck -2.96745 6.20367 -6.78468
head 0.17109 3.17722 -1.48787
rclavicle 1.64196e-013 -1.90833e-014
rhumerus -53.9798 17.0304 -107.471
rradius 80.8002
rwrist 0.371696
rhand -29.1596 33.607
rfingers 7.12502
rthumb -2.50585 3.64193
lclavicle 1.64196e-013 -1.90833e-014
lhumerus -65.9555 9.19087 92.0179
lradius 107.649
lwrist 19.8164
lhand -14.8942 -12.018
lfingers 7.12502
lthumb 11.2668 17.6594
rfemur 3.77301 -6.56608 12.1135
rtibia 69.8402
rfoot 1.30619 1.22303
rtoes -17.817
lfemur -26.4311 8.96148 -37.8475
ltibia 51.9882
lfoot -25.2395 5.85262
ltoes 14.9674
123
root -9.0428 16.4478 18.6074 -177.601 58.1054 543.045
lowerback 15.2594 -0.21742 -4.28862
upperback 3.26313 -0.842371 -3.23517
thorax -5.06473 -0.2399 -0.840678
lowerneck -5.69704 4.5071 -2.95505
upperneck -3.21249 6.32298 -6.86257
head 0.0911579 3.24867 -1.5133
rclavicle 1.36366e-013 -5.08889e-014
rhumerus -53.5017 15.9687 -106.85
rradius 78.933
rwrist 1.0321
rhand -29.9033 33.4211
rfingers 7.12502
rthumb -3.22409 3.46572
lclavicle 1.36366e-013 -5.08889e-014
lhumerus -64.8392 9.31523 92.0326
lradius 108.418
lwrist 19.9709
lhand -15.1585 -11.9244
lfingers 7.12502
lthumb 11.0118 17.7667
rfemur 2.33182 -7.21518 11.1199
rtibia 73.2557
rfoot 0.614045 0.618818
rtoes -17.4956
lfemur -25.4602 8.29844 -38.1291
ltibia 53.3767
lfoot -27.0551 6.29979
ltoes 15.5661
